# Blender 3.6.2
# www.blender.org
mtllib Breadboard.mtl
o Breadboard
v 0.119957 0.236730 0.300844 1.0000 1.0000 1.0000
v 0.064226 0.225481 0.066167 1.0000 1.0000 1.0000
v 0.065439 0.236696 0.300144 1.0000 1.0000 1.0000
v 0.423072 0.226350 0.084279 1.0000 1.0000 1.0000
v 0.423009 0.225386 0.064179 1.0000 1.0000 1.0000
v 0.423072 0.226350 0.084279 1.0000 1.0000 1.0000
v 0.429186 0.226416 0.085657 1.0000 1.0000 1.0000
v 0.428328 0.226350 0.084279 1.0000 1.0000 1.0000
v 0.429361 0.226506 0.087550 1.0000 1.0000 1.0000
v 0.428930 0.226704 0.091679 1.0000 1.0000 1.0000
v 0.429703 0.226642 0.090387 1.0000 1.0000 1.0000
v 0.426001 0.226844 0.094601 1.0000 1.0000 1.0000
v 0.422730 0.226906 0.095893 1.0000 1.0000 1.0000
v 0.424711 0.226902 0.095807 1.0000 1.0000 1.0000
v 0.422724 0.230946 0.180179 1.0000 1.0000 1.0000
v 0.428145 0.231012 0.181550 1.0000 1.0000 1.0000
v 0.427543 0.230933 0.179916 1.0000 1.0000 1.0000
v 0.428662 0.231139 0.184216 1.0000 1.0000 1.0000
v 0.428231 0.231354 0.188689 1.0000 1.0000 1.0000
v 0.429007 0.231280 0.187141 1.0000 1.0000 1.0000
v 0.426164 0.231494 0.191611 1.0000 1.0000 1.0000
v 0.427372 0.231416 0.189977 1.0000 1.0000 1.0000
v 0.422893 0.231511 0.191956 1.0000 1.0000 1.0000
v 0.424272 0.231506 0.191871 1.0000 1.0000 1.0000
v 0.423149 0.235563 0.276496 1.0000 1.0000 1.0000
v 0.428743 0.235641 0.278130 1.0000 1.0000 1.0000
v 0.427022 0.235583 0.276927 1.0000 1.0000 1.0000
v 0.429174 0.235744 0.280279 1.0000 1.0000 1.0000
v 0.429174 0.235744 0.280279 1.0000 1.0000 1.0000
v 0.428316 0.235880 0.283120 1.0000 1.0000 1.0000
v 0.429349 0.235835 0.282173 1.0000 1.0000 1.0000
v 0.425558 0.236074 0.287163 1.0000 1.0000 1.0000
v 0.427453 0.235983 0.285269 1.0000 1.0000 1.0000
v 0.422804 0.236069 0.287073 1.0000 1.0000 1.0000
v 0.366924 0.236763 0.301532 1.0000 1.0000 1.0000
v 0.422802 0.236746 0.301185 1.0000 1.0000 1.0000
v 0.366664 0.236956 0.305575 1.0000 1.0000 1.0000
v 0.365801 0.237043 0.307379 1.0000 1.0000 1.0000
v 0.366664 0.237014 0.306778 1.0000 1.0000 1.0000
v 0.365801 0.237043 0.307379 1.0000 1.0000 1.0000
v 0.363133 0.237125 0.309102 1.0000 1.0000 1.0000
v 0.364597 0.237092 0.308411 1.0000 1.0000 1.0000
v 0.360724 0.237146 0.309529 1.0000 1.0000 1.0000
v 0.361497 0.237146 0.309529 1.0000 1.0000 1.0000
v 0.360118 0.237125 0.309102 1.0000 1.0000 1.0000
v 0.357795 0.237051 0.307554 1.0000 1.0000 1.0000
v 0.358312 0.237080 0.308155 1.0000 1.0000 1.0000
v 0.357193 0.236981 0.306091 1.0000 1.0000 1.0000
v 0.133219 0.236898 0.304367 1.0000 1.0000 1.0000
v 0.130551 0.237072 0.307979 1.0000 1.0000 1.0000
v 0.132873 0.236973 0.305915 1.0000 1.0000 1.0000
v 0.133821 0.236795 0.302217 1.0000 1.0000 1.0000
v 0.127967 0.237096 0.308495 1.0000 1.0000 1.0000
v 0.123403 0.237010 0.306691 1.0000 1.0000 1.0000
v 0.125124 0.237076 0.308069 1.0000 1.0000 1.0000
v 0.122370 0.236799 0.302303 1.0000 1.0000 1.0000
v 0.123057 0.236948 0.305399 1.0000 1.0000 1.0000
v 0.122195 0.236734 0.300929 1.0000 1.0000 1.0000
v 0.423149 0.235563 0.276496 1.0000 1.0000 1.0000
v 0.366924 0.236763 0.301532 1.0000 1.0000 1.0000
v 0.122195 0.236734 0.300929 1.0000 1.0000 1.0000
v 0.122195 0.236734 0.300929 1.0000 1.0000 1.0000
v 0.429361 0.226506 0.087550 1.0000 1.0000 1.0000
v 0.423072 0.226350 0.084279 1.0000 1.0000 1.0000
v 0.422724 0.230946 0.180179 1.0000 1.0000 1.0000
v 0.422893 0.231511 0.191956 1.0000 1.0000 1.0000
v 0.356848 0.236800 0.302304 1.0000 1.0000 1.0000
v 0.122195 0.236734 0.300929 1.0000 1.0000 1.0000
v 0.133821 0.236795 0.302217 1.0000 1.0000 1.0000
v 0.422730 0.226906 0.095893 1.0000 1.0000 1.0000
v 0.356848 0.236800 0.302304 1.0000 1.0000 1.0000
v 0.065439 0.260559 0.299001 1.0000 1.0000 1.0000
v 0.064226 0.249344 0.065023 1.0000 1.0000 1.0000
v 0.119957 0.260592 0.299700 1.0000 1.0000 1.0000
v 0.423009 0.249249 0.063036 1.0000 1.0000 1.0000
v 0.423072 0.250212 0.083136 1.0000 1.0000 1.0000
v 0.428328 0.250212 0.083136 1.0000 1.0000 1.0000
v 0.429186 0.250278 0.084513 1.0000 1.0000 1.0000
v 0.429703 0.250505 0.089243 1.0000 1.0000 1.0000
v 0.428930 0.250567 0.090535 1.0000 1.0000 1.0000
v 0.429361 0.250369 0.086407 1.0000 1.0000 1.0000
v 0.426001 0.250707 0.093457 1.0000 1.0000 1.0000
v 0.424711 0.250765 0.094664 1.0000 1.0000 1.0000
v 0.422730 0.250769 0.094749 1.0000 1.0000 1.0000
v 0.427543 0.254796 0.178773 1.0000 1.0000 1.0000
v 0.428145 0.254874 0.180406 1.0000 1.0000 1.0000
v 0.422724 0.254809 0.179035 1.0000 1.0000 1.0000
v 0.428662 0.255002 0.183072 1.0000 1.0000 1.0000
v 0.429007 0.255142 0.185997 1.0000 1.0000 1.0000
v 0.428231 0.255217 0.187546 1.0000 1.0000 1.0000
v 0.427372 0.255278 0.188834 1.0000 1.0000 1.0000
v 0.426164 0.255357 0.190467 1.0000 1.0000 1.0000
v 0.424272 0.255369 0.190727 1.0000 1.0000 1.0000
v 0.422893 0.255373 0.190813 1.0000 1.0000 1.0000
v 0.427022 0.259446 0.275783 1.0000 1.0000 1.0000
v 0.428743 0.259504 0.276986 1.0000 1.0000 1.0000
v 0.423149 0.259425 0.275353 1.0000 1.0000 1.0000
v 0.429174 0.259607 0.279136 1.0000 1.0000 1.0000
v 0.429349 0.259697 0.281029 1.0000 1.0000 1.0000
v 0.428316 0.259743 0.281976 1.0000 1.0000 1.0000
v 0.427453 0.259846 0.284125 1.0000 1.0000 1.0000
v 0.425558 0.259937 0.286019 1.0000 1.0000 1.0000
v 0.422802 0.260609 0.300042 1.0000 1.0000 1.0000
v 0.366924 0.260625 0.300388 1.0000 1.0000 1.0000
v 0.422804 0.259932 0.285930 1.0000 1.0000 1.0000
v 0.366664 0.260877 0.305634 1.0000 1.0000 1.0000
v 0.365801 0.260906 0.306235 1.0000 1.0000 1.0000
v 0.366664 0.260819 0.304431 1.0000 1.0000 1.0000
v 0.364597 0.260955 0.307268 1.0000 1.0000 1.0000
v 0.363133 0.260988 0.307958 1.0000 1.0000 1.0000
v 0.365801 0.260906 0.306235 1.0000 1.0000 1.0000
v 0.361497 0.261009 0.308385 1.0000 1.0000 1.0000
v 0.360724 0.261009 0.308385 1.0000 1.0000 1.0000
v 0.363133 0.260988 0.307958 1.0000 1.0000 1.0000
v 0.358312 0.260943 0.307012 1.0000 1.0000 1.0000
v 0.357795 0.260914 0.306410 1.0000 1.0000 1.0000
v 0.360118 0.260988 0.307958 1.0000 1.0000 1.0000
v 0.357193 0.260844 0.304947 1.0000 1.0000 1.0000
v 0.132873 0.260835 0.304771 1.0000 1.0000 1.0000
v 0.130551 0.260934 0.306836 1.0000 1.0000 1.0000
v 0.133219 0.260761 0.303223 1.0000 1.0000 1.0000
v 0.133821 0.260658 0.301074 1.0000 1.0000 1.0000
v 0.127967 0.260959 0.307352 1.0000 1.0000 1.0000
v 0.125124 0.260939 0.306925 1.0000 1.0000 1.0000
v 0.123403 0.260873 0.305547 1.0000 1.0000 1.0000
v 0.123057 0.260811 0.304255 1.0000 1.0000 1.0000
v 0.122370 0.260662 0.301159 1.0000 1.0000 1.0000
v 0.122195 0.260596 0.299786 1.0000 1.0000 1.0000
v 0.429361 0.250369 0.086407 1.0000 1.0000 1.0000
v 0.122195 0.260596 0.299786 1.0000 1.0000 1.0000
v 0.356848 0.260662 0.301160 1.0000 1.0000 1.0000
v 0.133821 0.260658 0.301074 1.0000 1.0000 1.0000
v 0.122195 0.260596 0.299786 1.0000 1.0000 1.0000
v 0.356848 0.260662 0.301160 1.0000 1.0000 1.0000
v 0.122195 0.260596 0.299786 1.0000 1.0000 1.0000
v 0.356848 0.260662 0.301160 1.0000 1.0000 1.0000
v 0.422724 0.254809 0.179035 1.0000 1.0000 1.0000
v 0.065439 0.236696 0.300144 1.0000 1.0000 1.0000
v 0.064226 0.249344 0.065023 1.0000 1.0000 1.0000
v 0.065439 0.260559 0.299001 1.0000 1.0000 1.0000
v 0.064226 0.225481 0.066167 1.0000 1.0000 1.0000
v 0.064226 0.225481 0.066167 1.0000 1.0000 1.0000
v 0.423009 0.249249 0.063036 1.0000 1.0000 1.0000
v 0.064226 0.249344 0.065023 1.0000 1.0000 1.0000
v 0.423009 0.225386 0.064179 1.0000 1.0000 1.0000
v 0.423009 0.225386 0.064179 1.0000 1.0000 1.0000
v 0.423072 0.250212 0.083136 1.0000 1.0000 1.0000
v 0.423009 0.249249 0.063036 1.0000 1.0000 1.0000
v 0.423072 0.226350 0.084279 1.0000 1.0000 1.0000
v 0.423072 0.226350 0.084279 1.0000 1.0000 1.0000
v 0.428328 0.250212 0.083136 1.0000 1.0000 1.0000
v 0.423072 0.250212 0.083136 1.0000 1.0000 1.0000
v 0.423072 0.226350 0.084279 1.0000 1.0000 1.0000
v 0.428328 0.226350 0.084279 1.0000 1.0000 1.0000
v 0.428328 0.250212 0.083136 1.0000 1.0000 1.0000
v 0.429186 0.250278 0.084513 1.0000 1.0000 1.0000
v 0.429186 0.226416 0.085657 1.0000 1.0000 1.0000
v 0.429361 0.250369 0.086407 1.0000 1.0000 1.0000
v 0.429361 0.226506 0.087550 1.0000 1.0000 1.0000
v 0.429703 0.250505 0.089243 1.0000 1.0000 1.0000
v 0.429703 0.226642 0.090387 1.0000 1.0000 1.0000
v 0.428930 0.250567 0.090535 1.0000 1.0000 1.0000
v 0.428930 0.226704 0.091679 1.0000 1.0000 1.0000
v 0.426001 0.250707 0.093457 1.0000 1.0000 1.0000
v 0.426001 0.226844 0.094601 1.0000 1.0000 1.0000
v 0.424711 0.250765 0.094664 1.0000 1.0000 1.0000
v 0.424711 0.226902 0.095807 1.0000 1.0000 1.0000
v 0.422730 0.250769 0.094749 1.0000 1.0000 1.0000
v 0.422730 0.226906 0.095893 1.0000 1.0000 1.0000
v 0.422730 0.226906 0.095893 1.0000 1.0000 1.0000
v 0.422724 0.254809 0.179035 1.0000 1.0000 1.0000
v 0.422730 0.250769 0.094749 1.0000 1.0000 1.0000
v 0.422730 0.226906 0.095893 1.0000 1.0000 1.0000
v 0.422724 0.230946 0.180179 1.0000 1.0000 1.0000
v 0.422724 0.254809 0.179035 1.0000 1.0000 1.0000
v 0.422724 0.230946 0.180179 1.0000 1.0000 1.0000
v 0.427543 0.254796 0.178773 1.0000 1.0000 1.0000
v 0.422724 0.254809 0.179035 1.0000 1.0000 1.0000
v 0.427543 0.230933 0.179916 1.0000 1.0000 1.0000
v 0.427543 0.230933 0.179916 1.0000 1.0000 1.0000
v 0.428145 0.254874 0.180406 1.0000 1.0000 1.0000
v 0.427543 0.254796 0.178773 1.0000 1.0000 1.0000
v 0.428145 0.231012 0.181550 1.0000 1.0000 1.0000
v 0.428662 0.255002 0.183072 1.0000 1.0000 1.0000
v 0.428662 0.231139 0.184216 1.0000 1.0000 1.0000
v 0.429007 0.255142 0.185997 1.0000 1.0000 1.0000
v 0.429007 0.231280 0.187141 1.0000 1.0000 1.0000
v 0.428231 0.255217 0.187546 1.0000 1.0000 1.0000
v 0.428231 0.231354 0.188689 1.0000 1.0000 1.0000
v 0.427372 0.255278 0.188834 1.0000 1.0000 1.0000
v 0.427372 0.231416 0.189977 1.0000 1.0000 1.0000
v 0.426164 0.255357 0.190467 1.0000 1.0000 1.0000
v 0.426164 0.231494 0.191611 1.0000 1.0000 1.0000
v 0.424272 0.255369 0.190727 1.0000 1.0000 1.0000
v 0.424272 0.231506 0.191871 1.0000 1.0000 1.0000
v 0.422893 0.255373 0.190813 1.0000 1.0000 1.0000
v 0.422893 0.231511 0.191956 1.0000 1.0000 1.0000
v 0.422893 0.231511 0.191956 1.0000 1.0000 1.0000
v 0.423149 0.259425 0.275353 1.0000 1.0000 1.0000
v 0.422893 0.255373 0.190813 1.0000 1.0000 1.0000
v 0.423149 0.235563 0.276496 1.0000 1.0000 1.0000
v 0.423149 0.235563 0.276496 1.0000 1.0000 1.0000
v 0.427022 0.259446 0.275783 1.0000 1.0000 1.0000
v 0.423149 0.259425 0.275353 1.0000 1.0000 1.0000
v 0.427022 0.235583 0.276927 1.0000 1.0000 1.0000
v 0.428743 0.259504 0.276986 1.0000 1.0000 1.0000
v 0.428743 0.235641 0.278130 1.0000 1.0000 1.0000
v 0.429174 0.259607 0.279136 1.0000 1.0000 1.0000
v 0.429174 0.235744 0.280279 1.0000 1.0000 1.0000
v 0.429349 0.259697 0.281029 1.0000 1.0000 1.0000
v 0.429174 0.235744 0.280279 1.0000 1.0000 1.0000
v 0.429349 0.235835 0.282173 1.0000 1.0000 1.0000
v 0.429349 0.259697 0.281029 1.0000 1.0000 1.0000
v 0.428316 0.259743 0.281976 1.0000 1.0000 1.0000
v 0.428316 0.235880 0.283120 1.0000 1.0000 1.0000
v 0.427453 0.259846 0.284125 1.0000 1.0000 1.0000
v 0.427453 0.235983 0.285269 1.0000 1.0000 1.0000
v 0.425558 0.259937 0.286019 1.0000 1.0000 1.0000
v 0.425558 0.236074 0.287163 1.0000 1.0000 1.0000
v 0.422804 0.259932 0.285930 1.0000 1.0000 1.0000
v 0.422804 0.236069 0.287073 1.0000 1.0000 1.0000
v 0.422804 0.236069 0.287073 1.0000 1.0000 1.0000
v 0.422802 0.260609 0.300042 1.0000 1.0000 1.0000
v 0.422804 0.259932 0.285930 1.0000 1.0000 1.0000
v 0.422802 0.236746 0.301185 1.0000 1.0000 1.0000
v 0.422802 0.236746 0.301185 1.0000 1.0000 1.0000
v 0.366924 0.260625 0.300388 1.0000 1.0000 1.0000
v 0.422802 0.260609 0.300042 1.0000 1.0000 1.0000
v 0.366924 0.236763 0.301532 1.0000 1.0000 1.0000
v 0.366924 0.236763 0.301532 1.0000 1.0000 1.0000
v 0.366664 0.260819 0.304431 1.0000 1.0000 1.0000
v 0.366924 0.260625 0.300388 1.0000 1.0000 1.0000
v 0.366664 0.236956 0.305575 1.0000 1.0000 1.0000
v 0.366664 0.260877 0.305634 1.0000 1.0000 1.0000
v 0.366664 0.237014 0.306778 1.0000 1.0000 1.0000
v 0.365801 0.260906 0.306235 1.0000 1.0000 1.0000
v 0.365801 0.237043 0.307379 1.0000 1.0000 1.0000
v 0.364597 0.260955 0.307268 1.0000 1.0000 1.0000
v 0.364597 0.237092 0.308411 1.0000 1.0000 1.0000
v 0.363133 0.260988 0.307958 1.0000 1.0000 1.0000
v 0.364597 0.237092 0.308411 1.0000 1.0000 1.0000
v 0.363133 0.237125 0.309102 1.0000 1.0000 1.0000
v 0.363133 0.260988 0.307958 1.0000 1.0000 1.0000
v 0.361497 0.261009 0.308385 1.0000 1.0000 1.0000
v 0.361497 0.237146 0.309529 1.0000 1.0000 1.0000
v 0.360724 0.261009 0.308385 1.0000 1.0000 1.0000
v 0.360724 0.237146 0.309529 1.0000 1.0000 1.0000
v 0.360118 0.260988 0.307958 1.0000 1.0000 1.0000
v 0.360118 0.237125 0.309102 1.0000 1.0000 1.0000
v 0.358312 0.260943 0.307012 1.0000 1.0000 1.0000
v 0.358312 0.237080 0.308155 1.0000 1.0000 1.0000
v 0.357795 0.260914 0.306410 1.0000 1.0000 1.0000
v 0.357795 0.237051 0.307554 1.0000 1.0000 1.0000
v 0.357193 0.260844 0.304947 1.0000 1.0000 1.0000
v 0.357193 0.236981 0.306091 1.0000 1.0000 1.0000
v 0.356848 0.260662 0.301160 1.0000 1.0000 1.0000
v 0.356848 0.236800 0.302304 1.0000 1.0000 1.0000
v 0.356848 0.236800 0.302304 1.0000 1.0000 1.0000
v 0.133821 0.260658 0.301074 1.0000 1.0000 1.0000
v 0.356848 0.260662 0.301160 1.0000 1.0000 1.0000
v 0.133821 0.236795 0.302217 1.0000 1.0000 1.0000
v 0.133821 0.236795 0.302217 1.0000 1.0000 1.0000
v 0.133219 0.260761 0.303223 1.0000 1.0000 1.0000
v 0.133821 0.260658 0.301074 1.0000 1.0000 1.0000
v 0.133219 0.236898 0.304367 1.0000 1.0000 1.0000
v 0.132873 0.260835 0.304771 1.0000 1.0000 1.0000
v 0.132873 0.236973 0.305915 1.0000 1.0000 1.0000
v 0.130551 0.260934 0.306836 1.0000 1.0000 1.0000
v 0.130551 0.237072 0.307979 1.0000 1.0000 1.0000
v 0.127967 0.260959 0.307352 1.0000 1.0000 1.0000
v 0.127967 0.237096 0.308495 1.0000 1.0000 1.0000
v 0.125124 0.260939 0.306925 1.0000 1.0000 1.0000
v 0.125124 0.237076 0.308069 1.0000 1.0000 1.0000
v 0.123403 0.260873 0.305547 1.0000 1.0000 1.0000
v 0.123403 0.237010 0.306691 1.0000 1.0000 1.0000
v 0.123057 0.260811 0.304255 1.0000 1.0000 1.0000
v 0.123057 0.236948 0.305399 1.0000 1.0000 1.0000
v 0.122370 0.260662 0.301159 1.0000 1.0000 1.0000
v 0.122370 0.236799 0.302303 1.0000 1.0000 1.0000
v 0.122195 0.260596 0.299786 1.0000 1.0000 1.0000
v 0.122195 0.236734 0.300929 1.0000 1.0000 1.0000
v 0.122195 0.236734 0.300929 1.0000 1.0000 1.0000
v 0.119957 0.260592 0.299700 1.0000 1.0000 1.0000
v 0.122195 0.260596 0.299786 1.0000 1.0000 1.0000
v 0.119957 0.236730 0.300844 1.0000 1.0000 1.0000
v 0.065439 0.260559 0.299001 1.0000 1.0000 1.0000
v 0.065439 0.236696 0.300144 1.0000 1.0000 1.0000
vn -0.0000 -0.9989 0.0479
vn -0.0000 0.9989 -0.0479
vn -1.0000 0.0002 0.0052
vn -0.0055 -0.0479 -0.9988
vn 1.0000 -0.0002 -0.0031
vn -0.0000 -0.0479 -0.9989
vn 0.4084 -0.0437 -0.9118
vn 0.8387 -0.0261 -0.5440
vn 0.9448 -0.0157 -0.3274
vn 0.9944 -0.0051 -0.1056
vn 0.9755 0.0105 0.2200
vn 0.7854 0.0296 0.6183
vn 0.6952 0.0344 0.7180
vn 0.3492 0.0449 0.9360
vn 0.0431 0.0478 0.9979
vn 1.0000 -0.0000 0.0001
vn -0.0544 -0.0478 -0.9974
vn 0.9384 -0.0165 -0.3451
vn 0.9630 -0.0129 -0.2693
vn 0.9881 -0.0074 -0.1537
vn 0.9835 0.0087 0.1805
vn 0.8643 0.0241 0.5024
vn 0.8185 0.0275 0.5738
vn 0.4594 0.0425 0.8872
vn 0.0990 0.0476 0.9939
vn 0.0618 0.0478 0.9969
vn 1.0000 -0.0001 -0.0030
vn 0.1107 -0.0476 -0.9927
vn 0.3338 -0.0451 -0.9416
vn 0.8123 -0.0279 -0.5825
vn 0.9895 -0.0069 -0.1444
vn 0.9807 -0.0094 -0.1953
vn 0.9958 -0.0044 -0.0918
vn 0.9166 0.0191 0.3994
vn 0.6804 0.0351 0.7320
vn 0.8136 0.0278 0.5807
vn 0.8278 0.0269 0.5604
vn 0.3198 0.0454 0.9464
vn -0.0325 0.0479 0.9983
vn 0.0062 0.0479 0.9988
vn 0.9979 0.0031 0.0641
vn 0.9995 0.0015 0.0321
vn 0.8576 0.0246 0.5138
vn 0.6118 0.0379 0.7901
vn 0.5379 0.0404 0.8421
vn 0.6499 0.0364 0.7591
vn 0.4270 0.0433 0.9032
vn 0.3386 0.0450 0.9399
vn 0.2537 0.0463 0.9662
vn 0.1250 0.0475 0.9910
vn -0.2765 0.0460 0.9599
vn -0.5200 0.0409 0.8532
vn -0.6117 0.0379 0.7902
vn -0.8489 0.0253 0.5280
vn -0.9705 0.0115 0.2408
vn -0.9959 0.0043 0.0907
vn -0.0004 0.0479 0.9989
vn 0.9630 0.0129 0.2691
vn 0.9698 0.0117 0.2435
vn 0.8478 0.0254 0.5296
vn 0.4226 0.0434 0.9053
vn 0.0233 0.0479 0.9986
vn -0.3784 0.0443 0.9246
vn -0.8206 0.0274 0.5709
vn -0.9714 0.0114 0.2372
vn -0.9851 0.0082 0.1715
vn -0.9920 0.0060 0.1261
vn -0.0382 0.0478 0.9981
vn -0.0255 0.0479 0.9985
vn -0.0128 0.0479 0.9988
vt 0.931562 0.057329
vt 0.453561 0.143799
vt 0.863160 0.145104
vt 0.124256 0.044501
vt 0.149430 0.097091
vt 0.402865 0.648616
vt 0.406615 0.651939
vt 0.406907 0.650145
vt 0.402651 0.657928
vt 0.412225 0.660703
vt 0.410447 0.659318
vt 0.415973 0.665823
vt 0.415821 0.671362
vt 0.416623 0.667975
vt 0.764609 0.990042
vt 0.791309 0.955782
vt 0.787657 0.945981
vt 0.795365 0.971297
vt 0.798627 0.974245
vt 0.796775 0.970310
vt 0.806631 0.972303
vt 0.803072 0.971745
vt 0.818038 0.977427
vt 0.813260 0.974699
vt 0.988634 0.989148
vt 0.996202 0.983489
vt 0.993572 0.984063
vt 0.999830 0.985785
vt 0.413456 0.696247
vt 0.414447 0.700212
vt 0.414464 0.698692
vt 0.416505 0.706701
vt 0.416206 0.703381
vt 0.416236 0.708183
vt 0.413389 0.777873
vt 0.432728 0.727759
vt 0.429831 0.778526
vt 0.415374 0.781465
vt 0.434631 0.778633
vt 0.003061 0.773960
vt 0.005178 0.774711
vt 0.004386 0.773956
vt 0.005946 0.776051
vt 0.005818 0.775561
vt 0.006325 0.776741
vt 0.008033 0.779430
vt 0.007608 0.778557
vt 0.008509 0.781322
vt 0.004424 0.752532
vt 0.013729 0.748985
vt 0.007545 0.750582
vt 0.000193 0.757341
vt 0.018776 0.748689
vt 0.028049 0.752645
vt 0.023674 0.742802
vt 0.035159 0.752797
vt 0.030372 0.752245
vt 0.936520 0.051967
vt 0.408212 0.691576
vt 0.000069 0.782059
vt 0.036540 0.755547
vt 0.268682 0.999854
vt 0.151563 0.569094
vt 0.140669 0.581694
vt 0.292535 0.570283
vt 0.306813 0.585015
vt 0.009877 0.786247
vt 0.028572 0.999393
vt 0.029537 0.989211
vt 0.160294 0.576335
vt 0.406517 0.776028
vt 0.880758 0.417607
vt 0.535236 0.320707
vt 0.922731 0.510955
vt 0.222939 0.495361
vt 0.199735 0.546150
vt 0.181096 0.558988
vt 0.178930 0.563234
vt 0.553253 0.566234
vt 0.554431 0.567220
vt 0.554565 0.561931
vt 0.557638 0.569513
vt 0.559052 0.570551
vt 0.561822 0.571086
vt 0.768627 0.763276
vt 0.768738 0.748219
vt 0.766007 0.735554
vt 0.769331 0.745212
vt 0.770520 0.748311
vt 0.771187 0.749796
vt 0.781103 0.771083
vt 0.785489 0.770441
vt 0.788239 0.770829
vt 0.798225 0.755185
vt 0.947597 0.741178
vt 0.950114 0.738243
vt 0.941973 0.741171
vt 0.952842 0.734432
vt 0.955441 0.732705
vt 0.955231 0.731047
vt 0.957554 0.728898
vt 0.958584 0.725827
vt 0.972483 0.707533
vt 0.982140 0.658982
vt 0.957062 0.726596
vt 0.988406 0.654834
vt 0.989060 0.653148
vt 0.986172 0.656261
vt 0.631601 0.762575
vt 0.633080 0.763014
vt 0.632657 0.761914
vt 0.991403 0.649263
vt 0.991120 0.649198
vt 0.990264 0.650992
vt 0.990666 0.647303
vt 0.989996 0.647844
vt 0.992426 0.647420
vt 0.989168 0.648770
vt 0.008944 0.571682
vt 0.013075 0.574099
vt 0.006843 0.569405
vt 0.004227 0.564416
vt 0.017610 0.573909
vt 0.022043 0.573681
vt 0.027251 0.568559
vt 0.030398 0.568529
vt 0.036798 0.567966
vt 0.927876 0.535719
vt 0.178721 0.567858
vt 0.038622 0.566637
vt 0.981833 0.648636
vt 0.235238 0.911125
vt 0.239972 0.918600
vt 0.168157 0.714605
vt 0.929320 0.543139
vt 0.788630 0.722438
vt 0.623786 0.664141
vt 0.549464 0.555070
vt 0.552135 0.558310
vt 0.639087 0.999786
vt 0.621723 0.667256
vt 0.621799 0.668738
vt 0.621905 0.671465
vt 0.621607 0.673585
vt 0.622077 0.675169
vt 0.623700 0.694492
vt 0.628267 0.753933
vt 0.631769 0.759356
vt 0.632189 0.759632
vt 0.415846 0.783769
vt 0.163247 0.703876
vt 0.163693 0.705147
vt 0.163925 0.705707
vt 0.164198 0.706351
vt 0.164921 0.708023
vt 0.165284 0.708784
vt 0.166078 0.710435
s 0
usemtl 133
f 1/1/1 3/3/1 2/2/1
f 2/2/1 5/5/1 4/4/1
f 6/6/1 8/8/1 7/7/1
f 9/9/1 11/11/1 10/10/1
f 9/9/1 10/10/1 12/12/1
f 12/12/1 14/14/1 13/13/1
f 15/15/1 17/17/1 16/16/1
f 15/15/1 16/16/1 18/18/1
f 18/18/1 20/20/1 19/19/1
f 19/19/1 22/22/1 21/21/1
f 21/21/1 24/24/1 23/23/1
f 25/25/1 27/27/1 26/26/1
f 25/25/1 26/26/1 28/28/1
f 29/29/1 31/31/1 30/30/1
f 30/30/1 33/33/1 32/32/1
f 34/34/1 36/36/1 35/35/1
f 37/37/1 39/39/1 38/38/1
f 35/35/1 37/37/1 38/38/1
f 40/40/1 42/42/1 41/41/1
f 41/41/1 44/44/1 43/43/1
f 45/45/1 47/47/1 46/46/1
f 45/45/1 46/46/1 48/48/1
f 49/49/1 51/51/1 50/50/1
f 52/52/1 49/49/1 50/50/1
f 52/52/1 50/50/1 53/53/1
f 53/53/1 55/55/1 54/54/1
f 54/54/1 57/57/1 56/56/1
f 58/58/1 1/1/1 2/2/1
f 58/58/1 2/2/1 4/4/1
f 6/6/1 7/7/1 9/9/1
f 9/9/1 12/12/1 13/13/1
f 15/15/1 18/18/1 19/19/1
f 15/15/1 19/19/1 21/21/1
f 59/59/1 29/29/1 30/30/1
f 59/59/1 30/30/1 32/32/1
f 59/59/1 32/32/1 34/34/1
f 60/60/1 40/40/1 41/41/1
f 60/60/1 41/41/1 43/43/1
f 43/43/1 45/45/1 48/48/1
f 52/52/1 53/53/1 54/54/1
f 52/52/1 54/54/1 56/56/1
f 52/52/1 56/56/1 61/61/1
f 62/62/1 64/64/1 63/63/1
f 15/15/1 21/21/1 23/23/1
f 65/65/1 66/66/1 59/59/1
f 65/65/1 59/59/1 34/34/1
f 60/60/1 43/43/1 48/48/1
f 60/60/1 48/48/1 67/67/1
f 67/67/1 69/69/1 68/68/1
f 62/62/1 63/63/1 70/70/1
f 65/65/1 34/34/1 35/35/1
f 65/65/1 35/35/1 71/71/1
f 71/71/1 62/62/1 70/70/1
f 71/71/1 70/70/1 65/65/1
f 72/72/2 74/74/2 73/73/2
f 75/75/2 73/73/2 76/76/2
f 77/77/2 76/76/2 78/78/2
f 79/79/2 81/81/2 80/80/2
f 80/80/2 81/81/2 82/82/2
f 83/83/2 82/82/2 84/84/2
f 85/85/2 87/87/2 86/86/2
f 86/86/2 87/87/2 88/88/2
f 89/89/2 88/88/2 90/90/2
f 91/91/2 90/90/2 92/92/2
f 93/93/2 92/92/2 94/94/2
f 95/95/2 97/97/2 96/96/2
f 96/96/2 97/97/2 98/98/2
f 99/99/2 98/98/2 100/100/2
f 101/101/2 100/100/2 102/102/2
f 103/103/2 105/105/2 104/104/2
f 106/106/2 108/108/2 107/107/2
f 108/108/2 104/104/2 107/107/2
f 109/109/2 111/111/2 110/110/2
f 112/112/2 114/114/2 113/113/2
f 115/115/2 117/117/2 116/116/2
f 116/116/2 117/117/2 118/118/2
f 119/119/2 121/121/2 120/120/2
f 121/121/2 122/122/2 120/120/2
f 120/120/2 122/122/2 123/123/2
f 124/124/2 123/123/2 125/125/2
f 126/126/2 125/125/2 127/127/2
f 74/74/2 128/128/2 73/73/2
f 73/73/2 128/128/2 76/76/2
f 78/78/2 76/76/2 129/129/2
f 82/82/2 81/81/2 84/84/2
f 88/88/2 87/87/2 90/90/2
f 90/90/2 87/87/2 92/92/2
f 98/98/2 97/97/2 100/100/2
f 100/100/2 97/97/2 102/102/2
f 102/102/2 97/97/2 105/105/2
f 107/107/2 104/104/2 114/114/2
f 114/114/2 104/104/2 113/113/2
f 117/117/2 113/113/2 118/118/2
f 123/123/2 122/122/2 125/125/2
f 125/125/2 122/122/2 127/127/2
f 127/127/2 122/122/2 130/130/2
f 76/76/2 128/128/2 129/129/2
f 92/92/2 87/87/2 94/94/2
f 94/94/2 87/87/2 97/97/2
f 97/97/2 87/87/2 105/105/2
f 113/113/2 104/104/2 118/118/2
f 118/118/2 104/104/2 131/131/2
f 132/132/2 134/134/2 133/133/2
f 81/81/2 135/135/2 84/84/2
f 105/105/2 87/87/2 104/104/2
f 104/104/2 87/87/2 131/131/2
f 135/135/2 136/136/2 84/84/2
f 84/84/2 136/136/2 137/137/2
f 138/3/3 140/72/3 139/73/3
f 138/3/3 139/73/3 141/2/3
f 142/2/4 144/73/4 143/75/4
f 142/2/4 143/75/4 145/5/4
f 146/5/5 148/75/5 147/76/5
f 146/5/5 147/76/5 149/4/5
s 1
f 150/4/6 152/76/6 151/77/6
f 153/6/6 155/138/8 154/8/7
f 154/8/7 155/138/8 156/139/9
f 154/8/7 156/139/9 157/7/9
f 157/7/9 156/139/9 158/81/10
f 157/7/9 158/81/10 159/9/10
f 159/9/10 158/81/10 160/79/11
f 159/9/10 160/79/11 161/11/11
f 161/11/11 160/79/11 162/80/12
f 161/11/11 162/80/12 163/10/12
f 163/10/12 162/80/12 164/82/13
f 163/10/12 164/82/13 165/12/13
f 165/12/13 164/82/13 166/83/14
f 165/12/13 166/83/14 167/14/14
f 167/14/14 166/83/14 168/84/15
f 167/14/14 168/84/15 169/13/15
s 0
f 170/13/16 172/84/16 171/137/16
f 173/140/16 175/87/16 174/15/16
f 176/15/17 178/87/17 177/85/17
f 176/15/17 177/85/17 179/17/17
s 1
f 180/17/18 182/85/18 181/86/19
f 180/17/18 181/86/19 183/16/19
f 183/16/19 181/86/19 184/88/20
f 183/16/19 184/88/20 185/18/20
f 185/18/20 184/88/20 186/89/21
f 185/18/20 186/89/21 187/20/21
f 187/20/21 186/89/21 188/90/22
f 187/20/21 188/90/22 189/19/22
f 189/19/22 188/90/22 190/91/23
f 189/19/22 190/91/23 191/22/23
f 191/22/23 190/91/23 192/92/24
f 191/22/23 192/92/24 193/21/24
f 193/21/24 192/92/24 194/93/25
f 193/21/24 194/93/25 195/24/25
f 195/24/25 194/93/25 196/94/26
f 195/24/25 196/94/26 197/23/26
s 0
f 198/23/27 200/94/27 199/97/27
f 198/23/27 199/97/27 201/25/27
s 1
f 202/25/28 204/97/28 203/95/29
f 202/25/28 203/95/29 205/27/29
f 205/27/29 203/95/29 206/96/30
f 205/27/29 206/96/30 207/26/30
f 207/26/30 206/96/30 208/98/31
f 207/26/30 208/98/31 209/28/32
f 209/28/32 208/98/31 210/99/33
f 211/29/33 213/141/35 212/31/34
f 212/31/34 213/141/35 214/142/36
f 212/31/34 214/142/36 215/30/36
f 215/30/36 214/142/36 216/143/37
f 215/30/36 216/143/37 217/33/37
f 217/33/37 216/143/37 218/144/38
f 217/33/37 218/144/38 219/32/38
f 219/32/38 218/144/38 220/145/39
f 219/32/38 220/145/39 221/34/39
s 0
f 222/34/16 224/145/16 223/146/16
f 222/34/16 223/146/16 225/36/16
f 226/36/40 228/146/40 227/147/40
f 226/36/40 227/147/40 229/35/40
s 1
f 230/35/41 232/147/41 231/148/42
f 230/35/41 231/148/42 233/37/42
f 233/37/42 231/148/42 234/149/43
f 233/37/42 234/149/43 235/39/43
f 235/39/43 234/149/43 236/111/44
f 235/39/43 236/111/44 237/38/44
f 237/38/44 236/111/44 238/109/45
f 237/38/44 238/109/45 239/150/46
f 239/150/46 238/109/45 240/110/47
f 241/42/47 243/151/49 242/41/48
f 242/41/48 243/151/49 244/152/50
f 242/41/48 244/152/50 245/44/50
f 245/44/50 244/152/50 246/153/51
f 245/44/50 246/153/51 247/43/51
f 247/43/51 246/153/51 248/154/52
f 247/43/51 248/154/52 249/45/52
f 249/45/52 248/154/52 250/155/53
f 249/45/52 250/155/53 251/47/53
f 251/47/53 250/155/53 252/156/54
f 251/47/53 252/156/54 253/46/54
f 253/46/54 252/156/54 254/157/55
f 253/46/54 254/157/55 255/48/55
f 255/48/55 254/157/55 256/134/56
f 255/48/55 256/134/56 257/67/56
s 0
f 258/67/57 260/134/57 259/132/57
f 258/67/57 259/132/57 261/69/57
s 1
f 262/52/58 264/122/58 263/121/59
f 262/52/58 263/121/59 265/49/59
f 265/49/59 263/121/59 266/119/60
f 265/49/59 266/119/60 267/51/60
f 267/51/60 266/119/60 268/120/61
f 267/51/60 268/120/61 269/50/61
f 269/50/61 268/120/61 270/123/62
f 269/50/61 270/123/62 271/53/62
f 271/53/62 270/123/62 272/124/63
f 271/53/62 272/124/63 273/55/63
f 273/55/63 272/124/63 274/125/64
f 273/55/63 274/125/64 275/54/64
f 275/54/64 274/125/64 276/126/65
f 275/54/64 276/126/65 277/57/65
f 277/57/65 276/126/65 278/127/66
f 277/57/65 278/127/66 279/56/66
f 279/56/66 278/127/66 280/130/67
f 279/56/66 280/130/67 281/61/67
f 282/58/68 284/128/68 283/74/69
f 282/58/68 283/74/69 285/1/69
f 285/1/69 283/74/69 286/72/70
f 285/1/69 286/72/70 287/3/70
